<?xml version="1.0" standalone="no"?>
<!DOCTYPE svg PUBLIC "-//W3C//DTD SVG 20010904//EN"
 "http://www.w3.org/TR/2001/REC-SVG-20010904/DTD/svg10.dtd">
<svg version="1.0" xmlns="http://www.w3.org/2000/svg"
 width="252.000000pt" height="252.000000pt" viewBox="0 0 252.000000 252.000000"
 preserveAspectRatio="xMidYMid meet">

<g transform="translate(0.000000,252.000000) scale(0.100000,-0.100000)"
fill="#000000" stroke="none">
<path d="M0 1265 l0 -1225 1260 0 1260 0 0 1225 0 1225 -1260 0 -1260 0 0
-1225z m1258 865 c3 -39 2 -40 -30 -40 -18 0 -42 7 -52 15 -27 20 -35 19 -29
-6 5 -18 2 -20 -23 -17 -26 3 -29 7 -32 41 -3 36 -2 37 31 37 19 0 40 -7 47
-15 17 -21 30 -19 30 5 0 15 7 20 28 20 26 0 28 -3 30 -40z m97 18 c-1 -13 -3
-31 -4 -40 -1 -12 -9 -18 -26 -18 -22 0 -25 4 -25 40 0 37 2 40 29 40 23 0 28
-4 26 -22z m95 -18 c0 -22 5 -29 23 -32 30 -4 18 -24 -13 -20 -63 6 -70 11
-70 46 0 40 4 44 35 38 20 -3 25 -10 25 -32z m124 4 c11 -4 13 -14 10 -34 -5
-22 -2 -29 15 -35 35 -11 25 -27 -11 -20 -73 16 -78 20 -66 59 11 36 22 42 52
30z m-530 -30 c15 -14 26 -27 23 -30 -3 -3 -25 -8 -49 -11 -24 -3 -45 -9 -48
-14 -3 -4 -17 -10 -32 -14 l-26 -7 12 42 c7 23 19 46 27 51 25 16 63 9 93 -17z
m-174 -93 c-6 -12 -21 -23 -33 -26 -25 -7 -97 20 -97 35 0 16 46 23 69 10 21
-11 26 -5 22 27 -1 6 9 19 21 28 23 15 23 15 26 -19 2 -19 -2 -44 -8 -55z
m888 42 c22 -19 41 -103 24 -103 -6 0 -24 12 -41 26 -17 14 -47 30 -66 35 -43
12 -44 21 -2 42 42 21 60 21 85 0z m-333 -81 l30 -8 3 -87 3 -87 -85 0 -85 0
-3 43 c-2 34 -7 43 -25 45 -37 5 -43 -25 -39 -174 3 -100 7 -139 17 -145 29
-18 47 -2 51 46 l3 40 80 0 80 0 3 -86 3 -87 -64 -11 c-78 -14 -181 -13 -267
3 l-65 11 -3 239 c-1 132 2 244 6 248 26 26 278 33 357 10z m-435 -252 l0
-140 -80 0 -80 0 0 140 0 140 80 0 80 0 0 -140z m730 105 c0 -32 -2 -35 -30
-35 -25 0 -30 -4 -30 -25 0 -21 5 -25 30 -25 23 0 30 -4 30 -20 0 -16 -7 -20
-30 -20 -27 0 -30 -3 -30 -30 0 -27 3 -30 30 -30 27 0 30 -3 30 -30 l0 -30
-95 0 -95 0 0 140 0 140 95 0 95 0 0 -35z m-1547 -782 c3 -49 6 -199 7 -335
l1 -248 -33 7 c-18 3 -34 6 -35 7 -1 1 -3 149 -5 329 l-3 327 31 0 31 0 6 -87z
m247 17 l0 -70 -35 0 c-33 0 -35 2 -35 35 0 25 -5 35 -15 35 -13 0 -15 -33
-13 -262 2 -211 6 -262 17 -266 10 -3 12 4 9 32 -4 36 -4 36 34 36 l39 0 -3
-65 c-2 -36 -6 -65 -10 -65 -5 0 -42 0 -83 0 l-75 0 0 330 0 330 85 0 85 0 0
-70z m230 -1 l0 -70 -27 3 c-23 2 -29 9 -33 36 -10 68 -25 30 -28 -72 l-3
-104 31 -11 c26 -9 31 -15 28 -38 -2 -22 -8 -28 -28 -28 l-25 0 0 -119 c0 -87
3 -120 13 -123 8 -3 12 7 12 31 0 35 1 36 35 36 l36 0 -3 -67 -3 -66 -75 2
c-41 1 -76 3 -77 4 -1 1 -5 149 -9 330 l-7 327 82 0 81 0 0 -71z m230 -262 l0
-333 -35 4 -35 4 0 329 0 329 35 0 35 0 0 -333z m240 264 l0 -70 -29 1 c-27 1
-30 5 -33 37 -2 21 -8 36 -15 36 -7 0 -13 -3 -13 -7 0 -5 0 -125 0 -268 0
-232 2 -260 16 -260 13 0 15 8 12 35 -4 35 -4 35 34 35 l38 0 0 -65 0 -65 -85
0 -85 0 0 330 0 330 80 0 80 0 0 -69z m250 6 c0 -35 -2 -66 -5 -69 -3 -2 -18
-3 -35 0 -27 4 -30 8 -30 38 0 24 -5 34 -15 34 -12 0 -15 -19 -15 -109 l0
-109 30 -7 c25 -5 30 -11 30 -36 0 -26 -3 -29 -30 -29 l-31 0 3 -122 c2 -86 7
-123 16 -126 8 -2 12 8 12 32 0 34 2 36 35 36 l35 0 0 -65 0 -65 -85 0 -85 0
0 330 0 330 85 0 85 0 0 -63z m330 -90 c0 -106 -4 -157 -12 -165 -9 -9 -9 -12
0 -12 9 0 12 -43 12 -165 l0 -165 -83 0 -83 0 -3 330 -3 330 86 0 86 0 0 -153z
m240 -177 l0 -330 -35 0 -34 0 -3 150 c-2 83 -7 149 -11 148 -5 -2 -9 -70 -10
-153 l-2 -150 -30 3 c-16 2 -31 5 -31 5 -1 1 -4 149 -7 330 l-4 327 83 0 84 0
0 -330z m239 -2 l1 -333 -80 3 -80 4 0 207 c0 114 -3 263 -7 329 l-6 122 86 0
86 0 0 -332z m143 190 c2 -102 6 -143 16 -146 9 -3 12 30 12 142 l0 146 35 0
35 0 0 -180 0 -180 -25 6 -25 6 0 -156 0 -156 -35 0 -34 0 -3 152 c-2 114 -6
153 -15 154 -7 1 -17 2 -23 3 -6 1 -10 67 -10 176 l0 175 35 0 34 0 3 -142z"/>
<path d="M970 2085 c0 -8 5 -15 10 -15 6 0 10 7 10 15 0 8 -4 15 -10 15 -5 0
-10 -7 -10 -15z"/>
<path d="M1720 2025 c0 -8 5 -15 10 -15 6 0 10 7 10 15 0 8 -4 15 -10 15 -5 0
-10 -7 -10 -15z"/>
<path d="M1602 959 c2 -80 7 -114 16 -117 10 -3 12 21 10 109 -2 80 -7 114
-16 117 -10 3 -12 -21 -10 -109z"/>
<path d="M1607 773 c-9 -8 -9 -190 -1 -220 15 -54 24 -14 24 102 0 114 -5 137
-23 118z"/>
<path d="M1846 1033 c1 -16 3 -65 3 -110 1 -48 5 -83 11 -83 6 0 10 43 10 110
0 83 -3 110 -13 110 -8 0 -12 -11 -11 -27z"/>
<path d="M2089 1066 c-8 -9 3 -226 12 -226 5 0 9 50 9 115 0 101 -5 127 -21
111z"/>
<path d="M2090 775 c-1 -3 -1 -52 -1 -110 0 -58 0 -112 1 -120 0 -8 5 -15 10
-15 6 0 10 48 10 125 0 77 -4 125 -10 125 -5 0 -10 -2 -10 -5z"/>
</g>
</svg>
